<?xml version="1.0" encoding="utf-8"?>
<!-- Generator: Adobe Illustrator 17.0.0, SVG Export Plug-In . SVG Version: 6.00 Build 0)  -->
<!DOCTYPE svg PUBLIC "-//W3C//DTD SVG 1.1//EN" "http://www.w3.org/Graphics/SVG/1.1/DTD/svg11.dtd">
<svg version="1.1" id="Layer_1" xmlns="http://www.w3.org/2000/svg" xmlns:xlink="http://www.w3.org/1999/xlink" x="0px" y="0px"
	 width="150px" height="59.818px" viewBox="0 0 150 59.818" enable-background="new 0 0 150 59.818" xml:space="preserve">
<g>
	<g>
		<path fill="#FFFFFF" d="M23.553,18.125v29.465h-8.105V18.125H8.271v-7.584h22.461v7.584H23.553z"/>
		<path fill="#FFFFFF" d="M56.245,39.978c-0.405,1.447-1.032,2.798-1.881,4.051c-0.848,1.256-2.046,2.248-3.589,2.981
			c-1.544,0.735-3.359,1.101-5.442,1.101c-3.974,0-6.917-1.061-8.829-3.184c-1.909-2.121-2.866-5.133-2.866-9.031h7.933
			c0,1.93,0.337,3.243,1.011,3.938c0.676,0.693,1.593,1.042,2.75,1.042c1.004,0,1.834-0.434,2.489-1.303
			c0.658-0.867,0.985-2.23,0.985-4.082c0-3.472-1.409-5.209-4.226-5.209H34.508V10.541h20.898v7.584H42.38v5.324h3.995
			c2.972,0,5.461,0.957,7.469,2.866c2.006,1.911,3.01,4.931,3.01,9.06C56.853,36.997,56.651,38.531,56.245,39.978z"/>
		<path fill="#FFFFFF" d="M88.765,47.591V24.609l-5.963,22.982h-7.815l-5.963-22.982v22.982h-8.103v-37.05h11.287l6.717,26.687
			l6.656-26.687H96.87v37.05H88.765z"/>
		<path fill="#FFFFFF" d="M130.701,47.591V24.609l-5.963,22.982h-7.815l-5.963-22.982v22.982h-8.103v-37.05h11.287l6.717,26.687
			l6.656-26.687h11.289v37.05H130.701z"/>
	</g>
	<g>
		<path fill="#FFFFFF" d="M150,59.818H0V0h150V59.818z M3.896,55.922h142.208V3.896H3.896V55.922z"/>
	</g>
</g>
</svg>
