<?xml version="1.0" encoding="utf-8"?>
<!-- Generator: Adobe Illustrator 17.0.0, SVG Export Plug-In . SVG Version: 6.00 Build 0)  -->
<!DOCTYPE svg PUBLIC "-//W3C//DTD SVG 1.1//EN" "http://www.w3.org/Graphics/SVG/1.1/DTD/svg11.dtd">
<svg version="1.1" id="Layer_1" xmlns="http://www.w3.org/2000/svg" xmlns:xlink="http://www.w3.org/1999/xlink" x="0px" y="0px"
	 width="27.043px" height="7.784px" viewBox="0 0 27.043 7.784" enable-background="new 0 0 27.043 7.784" xml:space="preserve">
<g>
	<path d="M3.166,1.571v6.104H1.487V1.571H0V0h4.653v1.571H3.166z"/>
	<path d="M9.939,6.099c-0.084,0.3-0.214,0.58-0.39,0.839c-0.176,0.26-0.424,0.466-0.744,0.618C8.486,7.708,8.11,7.784,7.678,7.784
		c-0.823,0-1.433-0.22-1.829-0.66C5.454,6.685,5.255,6.061,5.255,5.253h1.644c0,0.4,0.07,0.672,0.209,0.816
		c0.14,0.144,0.33,0.216,0.57,0.216c0.208,0,0.38-0.09,0.516-0.27c0.136-0.18,0.204-0.462,0.204-0.846
		c0-0.719-0.292-1.079-0.875-1.079H5.436V0h4.33v1.571H7.066v1.103h0.828c0.616,0,1.131,0.198,1.547,0.594
		c0.416,0.396,0.624,1.021,0.624,1.877C10.065,5.481,10.023,5.799,9.939,6.099z"/>
	<path d="M16.676,7.676V2.915l-1.235,4.761h-1.619l-1.235-4.761v4.761h-1.679V0h2.338l1.392,5.529L16.017,0h2.339v7.676H16.676z"/>
	<path d="M25.364,7.676V2.915l-1.235,4.761H22.51l-1.235-4.761v4.761h-1.679V0h2.338l1.392,5.529L24.705,0h2.339v7.676H25.364z"/>
</g>
</svg>
